<svg width="82" height="84" viewBox="0 0 82 84" fill="none" xmlns="http://www.w3.org/2000/svg">
<path fill-rule="evenodd" clip-rule="evenodd" d="M25.4048 4.12781C35.0551 -1.37602 46.9449 -1.37602 56.5953 4.12781L66.4048 9.72239C76.0551 15.2262 82 25.3977 82 36.4054V47.5945C82 58.6022 76.0551 68.7737 66.4048 74.2775L56.5953 79.8721C46.9449 85.3759 35.0551 85.3759 25.4048 79.8721L15.5953 74.2775C5.94488 68.7737 0 58.6022 0 47.5945V36.4054C0 25.3977 5.94488 15.2262 15.5953 9.72239L25.4048 4.12781ZM40.61 18.1235C35.3554 17.8457 35.3553 17.8481 35.3552 17.8504L35.3549 17.8554L35.3544 17.866L35.3532 17.8904L35.3507 17.9514C35.349 17.9975 35.3472 18.0542 35.3457 18.1211C35.3427 18.2549 35.3408 18.4297 35.3429 18.6412C35.3471 19.0633 35.3673 19.6367 35.4275 20.3252C35.5467 21.691 35.8284 23.5713 36.4892 25.6483C37.8188 29.8279 40.7908 35.0572 47.183 38.1029C50.189 39.5352 51.6359 41.9298 52.3755 44.2548C52.7494 45.43 52.915 46.5221 52.9843 47.3155C53.0185 47.7067 53.0279 48.0097 53.0297 48.1941C53.0307 48.2858 53.0297 48.3468 53.0291 48.373C53.0288 48.3861 53.0286 48.3903 53.0288 48.3853L53.0294 48.3707L53.03 48.358L53.0304 48.3503L53.0306 48.3461C53.0307 48.3439 53.0308 48.3417 58.2854 48.6194C63.54 48.8971 63.5401 48.8948 63.5402 48.8924L63.5405 48.8875L63.541 48.8769L63.5422 48.8525L63.5447 48.7914C63.5464 48.7454 63.5482 48.6886 63.5497 48.6217C63.5528 48.488 63.5546 48.3132 63.5525 48.1017C63.5483 47.6796 63.5281 47.1062 63.468 46.4177C63.3487 45.0519 63.067 43.1716 62.4062 41.0945C61.0766 36.915 58.1046 31.6857 51.7124 28.64C48.7064 27.2077 47.2596 24.8131 46.5199 22.4881C46.146 21.3129 45.9804 20.2208 45.9111 19.4273C45.8769 19.0361 45.8675 18.7332 45.8657 18.5488C45.8648 18.457 45.8657 18.3961 45.8663 18.3699C45.8665 18.3604 45.8667 18.3555 45.8667 18.3555L45.8666 18.3575L45.866 18.3722L45.8654 18.3848L45.865 18.3925L45.8648 18.3967C45.8647 18.3989 45.8646 18.4012 40.61 18.1235ZM23.4255 35.7304C18.1709 35.4526 18.1708 35.455 18.1707 35.4573L18.1705 35.4622L18.1699 35.4729L18.1688 35.4973L18.1663 35.5583C18.1645 35.6044 18.1627 35.6611 18.1612 35.728C18.1582 35.8618 18.1563 36.0366 18.1584 36.2481C18.1626 36.6702 18.1829 37.2436 18.243 37.9321C18.3623 39.2979 18.644 41.1782 19.3047 43.2552C20.6344 47.4348 23.6064 52.6641 29.9985 55.7098C33.0045 57.1421 34.4514 59.5367 35.1911 61.8617C35.5649 63.0369 35.7305 64.129 35.7998 64.9224C35.834 65.3136 35.8434 65.6166 35.8453 65.801C35.8462 65.8927 35.8452 65.9537 35.8446 65.9799C35.8445 65.9872 35.8443 65.9918 35.8443 65.9935C35.8442 65.9948 35.8442 65.9944 35.8443 65.9922L35.8449 65.9776L35.8455 65.9649L35.8459 65.9572L35.8461 65.953C35.8462 65.9508 35.8463 65.9486 41.1009 66.2263C46.3555 66.504 46.3557 66.5017 46.3558 66.4994L46.356 66.4944L46.3566 66.4838L46.3577 66.4594L46.3602 66.3983C46.3619 66.3523 46.3638 66.2955 46.3653 66.2286C46.3683 66.0949 46.3702 65.9201 46.3681 65.7086C46.3639 65.2865 46.3436 64.7131 46.2835 64.0246C46.1642 62.6588 45.8825 60.7785 45.2218 58.7014C43.8921 54.5219 40.9201 49.2926 34.528 46.2469C31.522 44.8146 30.0751 42.42 29.3354 40.095C28.9616 38.9198 28.796 37.8277 28.7266 37.0342C28.6925 36.643 28.6831 36.3401 28.6812 36.1557C28.6803 36.0639 28.6813 36.003 28.6819 35.9768L28.6822 35.9644L28.6816 35.9791L28.681 35.9917L28.6806 35.9994L28.6804 36.0036C28.6803 36.0058 28.6801 36.0081 23.4255 35.7304Z" fill="white"/>
</svg>
